<svg id="Discord_Logo" data-name="Discord Logo" xmlns="http://www.w3.org/2000/svg" viewBox="0 0 2080 2080"><path d="M1269.6,887.14c-69.2,0-124.2,62.5-124.2,139.3s56.1,139.3,124.2,139.3c69.7,0,124.2-62.5,124.2-139.3,1.1-76.3-54.5-139.3-124.2-139.3Zm-459.3,0c-69.2,0-124.2,62.5-124.2,139.3s56.1,139.3,124.2,139.3c69.2,0,124.2-62.5,124.2-139.3,1.1-76.3-54.5-139.3-124.2-139.3Z"/><path d="M1040,0C465.62,0,0,465.62,0,1040S465.62,2080,1040,2080s1040-465.62,1040-1040S1614.38,0,1040,0Zm685.2,1375.1h0a4.56,4.56,0,0,1-1.8,3.2c-118.2,86.8-232.8,139.5-345.7,174.5a4.37,4.37,0,0,1-4.8-1.6,924.49,924.49,0,0,1-70.6-114.8,4.36,4.36,0,0,1,2.3-6.1,715.72,715.72,0,0,0,107.9-51.3,4.49,4.49,0,0,0,.4-7.4c-7.3-5.4-14.5-11.1-21.5-16.8a4.13,4.13,0,0,0-4.5-.5c-223.6,103.3-468.5,103.3-694.7,0a4.33,4.33,0,0,0-4.5.6c-6.9,5.7-14.2,11.4-21.4,16.8a4.49,4.49,0,0,0,.4,7.4,761.66,761.66,0,0,0,107.8,51.4,4.34,4.34,0,0,1,2.4,6.1,819.55,819.55,0,0,1-70.6,114.9,4.48,4.48,0,0,1-4.8,1.6c-112.4-34.9-226.9-87.7-345.2-174.5a4.76,4.76,0,0,1-1.8-3.2c-24.1-257.9,25-519,204.2-786.8a3.75,3.75,0,0,1,1.9-1.6A1135.67,1135.67,0,0,1,842,499.7a4.3,4.3,0,0,1,4.5,2.1c12.2,21.6,26.2,49.3,35.6,72,104.1-15.9,209.8-15.9,316,0a794.47,794.47,0,0,1,35-72,4.16,4.16,0,0,1,4.5-2.1A1138.57,1138.57,0,0,1,1519,587a3.53,3.53,0,0,1,1.8,1.6C1676.9,817.9,1754,1076.9,1725.2,1375.1Z"/></svg>