<?xml version="1.0" standalone="no"?>
<!DOCTYPE svg PUBLIC "-//W3C//DTD SVG 20010904//EN"
 "http://www.w3.org/TR/2001/REC-SVG-20010904/DTD/svg10.dtd">
<svg version="1.0" xmlns="http://www.w3.org/2000/svg"
 width="987.000000pt" height="987.000000pt" viewBox="0 0 987.000000 987.000000"
 preserveAspectRatio="xMidYMid meet">

<g transform="translate(0.000000,987.000000) scale(0.100000,-0.100000)"
fill="#000000" stroke="none">
<path d="M4730 9009 c-107 -3 -215 -11 -240 -17 -25 -6 -67 -11 -95 -12 -27 0
-86 -7 -130 -15 -44 -9 -96 -18 -115 -21 -33 -5 -87 -17 -186 -43 -23 -6 -53
-11 -67 -11 -14 0 -28 -4 -32 -9 -3 -5 -31 -15 -63 -21 -31 -6 -78 -20 -104
-31 -26 -10 -55 -19 -65 -19 -10 0 -30 -6 -45 -14 -15 -8 -52 -21 -82 -30 -30
-9 -58 -21 -61 -26 -3 -6 -13 -10 -21 -10 -21 0 -124 -45 -409 -180 -22 -11
-65 -36 -95 -55 -30 -20 -72 -45 -94 -56 -35 -19 -258 -167 -316 -211 -14 -10
-34 -25 -45 -33 -49 -36 -192 -149 -206 -164 -9 -9 -50 -45 -90 -81 -78 -69
-317 -317 -397 -412 -92 -110 -265 -346 -282 -385 -5 -12 -24 -44 -42 -70 -19
-26 -39 -59 -46 -73 -6 -14 -18 -33 -24 -44 -11 -15 -11 -19 0 -23 7 -3 21
-22 32 -42 11 -23 31 -43 49 -51 47 -19 49 -56 7 -143 -19 -40 -44 -81 -55
-92 -22 -19 -46 -17 -171 15 -25 7 -63 17 -85 22 -22 6 -53 14 -70 18 -95 25
-126 33 -185 45 -36 7 -77 18 -92 24 -14 5 -55 15 -90 21 -34 6 -79 17 -98 24
-19 8 -60 17 -90 21 -30 4 -66 13 -80 20 -14 7 -48 15 -77 19 -28 4 -67 13
-85 20 -18 8 -57 17 -86 21 -90 12 -106 -26 -46 -110 20 -28 74 -106 120 -175
84 -124 132 -193 173 -247 12 -16 28 -37 36 -48 15 -20 177 -225 292 -368 35
-44 63 -82 63 -86 0 -4 21 -28 47 -54 48 -49 89 -61 112 -33 14 16 72 29 94
20 25 -9 29 -34 13 -88 -8 -28 -20 -91 -26 -141 -7 -49 -16 -106 -21 -125 -5
-19 -11 -75 -14 -125 -4 -49 -11 -106 -16 -125 -12 -47 -11 -456 2 -550 6 -41
14 -120 18 -176 4 -56 11 -107 16 -113 6 -11 11 -36 34 -196 4 -27 12 -59 18
-70 6 -11 13 -45 17 -75 4 -30 15 -82 26 -115 20 -62 41 -128 65 -205 26 -86
55 -163 66 -176 14 -18 39 -17 62 0 17 13 17 16 1 67 -9 30 -21 59 -25 64 -4
6 -13 33 -20 60 -6 28 -15 55 -20 60 -9 12 -43 139 -65 240 -8 39 -19 77 -23
86 -5 8 -14 58 -21 110 -6 52 -16 108 -22 124 -24 68 -33 244 -32 650 0 369 3
425 17 459 9 21 17 51 17 66 0 55 21 52 88 -11 53 -51 174 -160 327 -296 79
-70 230 -176 445 -311 30 -19 68 -44 85 -55 35 -25 72 -24 123 3 20 11 43 20
50 20 8 0 26 6 40 14 34 18 95 46 192 86 41 18 108 47 148 66 40 19 75 34 78
34 5 0 31 11 149 65 76 34 298 131 495 216 25 11 62 29 82 39 20 11 42 20 48
20 6 0 49 18 96 40 47 22 88 40 91 40 3 0 31 12 62 26 31 14 72 33 91 41 19 9
58 26 85 38 28 12 70 31 95 41 56 22 70 32 70 51 0 31 -59 40 -200 32 -74 -5
-551 -13 -1060 -18 -1000 -12 -1568 -26 -1614 -41 -45 -15 -49 -13 -42 23 4
17 10 49 13 69 10 72 -68 66 1033 77 547 6 1102 16 1233 22 193 9 246 9 278
-1 33 -11 44 -11 65 1 15 7 29 19 31 26 8 21 -38 51 -97 63 -30 6 -68 16 -85
21 -16 6 -59 17 -95 25 -36 9 -74 19 -85 24 -11 5 -33 11 -50 14 -29 6 -82 21
-231 65 -39 12 -78 21 -88 21 -10 0 -50 9 -89 19 -40 11 -110 29 -157 41 -47
12 -98 26 -115 32 -16 5 -57 16 -90 23 -33 8 -77 21 -97 29 -21 9 -47 16 -59
16 -11 0 -35 6 -52 14 -18 8 -79 28 -137 46 -58 17 -121 38 -140 45 -19 8 -51
19 -70 24 -19 6 -60 19 -90 30 -30 10 -143 49 -250 86 -107 37 -210 73 -228
81 l-32 13 25 58 c73 164 310 535 408 635 9 10 17 22 17 26 0 4 23 32 51 62
29 30 75 82 103 115 97 114 436 418 562 505 138 95 266 178 344 222 128 73
408 210 495 241 22 8 72 27 110 42 39 14 90 31 115 37 25 6 50 14 56 19 6 5
44 15 84 24 40 9 78 19 84 24 6 5 49 14 96 21 47 8 91 18 97 23 7 5 45 13 85
18 40 6 102 14 138 19 164 24 555 54 571 44 5 -3 92 -10 192 -15 100 -4 215
-13 255 -19 39 -5 102 -14 140 -19 94 -14 231 -40 267 -53 17 -5 59 -16 95
-24 36 -8 79 -21 97 -29 17 -8 42 -15 55 -15 12 -1 41 -9 63 -20 22 -11 48
-19 58 -20 10 0 34 -8 55 -19 20 -10 51 -21 67 -25 17 -4 61 -23 99 -42 39
-19 73 -34 77 -34 10 0 192 -90 269 -132 167 -91 288 -169 470 -303 22 -16 54
-39 70 -51 16 -12 62 -50 102 -86 40 -36 111 -99 158 -140 46 -41 113 -108
149 -149 35 -41 87 -100 115 -131 102 -115 183 -222 277 -364 87 -132 102
-155 117 -184 6 -14 23 -43 36 -65 53 -90 88 -164 84 -180 -3 -17 -50 -39
-123 -56 -22 -5 -56 -16 -75 -23 -19 -8 -57 -20 -85 -26 -27 -6 -66 -18 -85
-25 -19 -7 -75 -25 -125 -39 -49 -15 -103 -31 -120 -37 -16 -6 -52 -17 -80
-24 -27 -7 -63 -18 -79 -24 -16 -6 -49 -16 -75 -21 -25 -6 -55 -14 -66 -19
-32 -14 -187 -61 -225 -67 -19 -4 -40 -11 -47 -16 -6 -5 -40 -16 -75 -24 -35
-8 -79 -20 -98 -28 -34 -13 -85 -29 -265 -81 -49 -15 -106 -33 -125 -40 -19
-8 -51 -17 -70 -20 -19 -3 -51 -12 -70 -20 -43 -17 -195 -62 -235 -70 -41 -9
-93 -36 -100 -53 -3 -7 0 -23 6 -34 11 -21 13 -21 383 -14 204 4 466 11 581
17 256 12 1480 28 1514 19 32 -8 57 -93 33 -113 -11 -9 -106 -13 -376 -14
-1178 -9 -2324 -25 -2367 -34 -81 -17 -86 -58 -10 -74 19 -4 89 -29 155 -56
67 -26 135 -51 151 -55 17 -4 35 -11 41 -15 6 -5 31 -16 55 -23 98 -32 162
-56 173 -65 6 -5 27 -12 46 -16 19 -4 44 -12 55 -18 11 -6 67 -27 125 -47 125
-44 263 -96 305 -115 17 -8 46 -18 65 -24 19 -5 64 -21 100 -34 36 -14 110
-41 165 -61 55 -20 109 -41 120 -46 23 -11 88 -34 155 -56 25 -8 59 -21 77
-29 17 -8 34 -15 39 -15 10 0 134 -48 156 -60 10 -6 27 -6 40 -1 21 8 190 141
306 239 80 69 148 127 237 202 49 41 117 101 151 133 33 31 70 57 81 57 26 0
30 -21 43 -220 5 -80 14 -166 20 -191 18 -71 -3 -590 -30 -729 -5 -30 -14 -84
-20 -120 -5 -36 -14 -87 -20 -115 -6 -27 -15 -68 -19 -90 -4 -22 -16 -67 -26
-100 -9 -33 -29 -98 -42 -145 -14 -47 -37 -116 -51 -155 -14 -38 -33 -93 -42
-121 -10 -28 -23 -60 -28 -70 -6 -10 -22 -48 -37 -84 -34 -83 -99 -212 -192
-381 -38 -69 -165 -263 -214 -329 -93 -122 -148 -192 -183 -231 -23 -25 -55
-63 -72 -85 -44 -55 -177 -188 -260 -259 -38 -33 -71 -63 -74 -66 -4 -6 -87
-72 -210 -168 -164 -128 -315 -220 -570 -349 -107 -54 -240 -115 -295 -137
-55 -21 -120 -46 -144 -57 -24 -10 -50 -18 -58 -18 -8 0 -29 -6 -46 -14 -32
-15 -97 -33 -217 -62 -36 -8 -78 -20 -95 -26 -16 -5 -75 -16 -130 -24 -55 -8
-111 -18 -125 -23 -54 -20 -280 -33 -590 -35 -316 -1 -468 6 -540 24 -19 5
-75 14 -125 20 -49 7 -102 17 -118 22 -15 6 -57 16 -95 24 -84 16 -186 42
-232 58 -19 7 -66 23 -105 35 -38 12 -90 31 -115 40 -25 10 -72 29 -105 41
-109 41 -333 147 -406 192 -19 12 -56 33 -84 48 -61 33 -108 63 -177 112 -28
21 -55 38 -60 38 -4 0 -35 21 -69 48 -33 26 -71 54 -82 62 -85 59 -219 179
-384 343 -106 105 -193 195 -193 200 0 4 -19 29 -43 55 -73 80 -130 156 -234
312 -42 63 -88 127 -102 143 -43 47 -105 28 -76 -23 8 -14 18 -32 22 -40 6
-12 67 -106 133 -204 30 -44 133 -181 144 -191 6 -5 22 -23 34 -40 13 -16 40
-48 60 -70 21 -22 62 -69 92 -105 65 -76 197 -204 295 -286 39 -32 75 -64 80
-70 12 -12 138 -112 171 -134 173 -118 292 -194 382 -247 40 -23 309 -157 357
-178 17 -7 51 -23 77 -34 25 -12 59 -26 75 -31 15 -5 60 -21 98 -35 90 -34
185 -64 260 -82 33 -8 67 -18 76 -23 9 -5 52 -16 96 -24 43 -8 89 -19 103 -24
14 -5 61 -13 104 -17 44 -4 100 -13 125 -21 25 -8 74 -14 108 -14 34 0 74 -5
90 -11 18 -7 147 -11 368 -10 273 0 351 3 395 15 30 9 80 16 111 16 31 0 74 6
95 14 22 7 73 17 114 21 41 4 94 13 116 21 23 8 73 20 110 28 38 8 83 19 99
24 17 6 77 26 135 43 58 18 119 38 135 45 17 7 68 26 114 44 46 17 91 35 100
40 9 5 43 21 76 35 102 45 285 141 375 196 25 15 70 43 100 60 30 18 60 38 67
44 6 5 41 30 78 55 165 112 280 209 492 415 223 217 390 420 553 675 5 8 20
31 32 50 13 19 29 46 36 60 7 14 24 43 37 65 50 85 195 384 210 435 4 14 14
34 21 45 8 11 14 26 14 35 0 8 7 28 15 44 9 16 20 46 25 65 5 20 25 83 45 141
19 58 35 114 35 125 0 11 7 32 14 47 8 15 18 53 22 85 3 32 12 74 19 93 7 19
18 78 25 130 6 52 16 104 20 115 11 23 15 75 30 395 8 168 8 263 1 333 -6 54
-11 130 -11 170 -1 77 -22 247 -38 310 -9 33 -7 45 14 85 29 56 24 86 -17 103
-36 14 -49 36 -49 83 0 30 4 37 26 42 14 4 42 3 62 -1 20 -4 72 -9 116 -9 l78
-2 43 41 c23 22 62 66 86 98 24 32 55 73 69 92 30 39 125 176 156 225 13 19
39 58 59 85 20 28 53 75 75 105 22 30 58 80 81 110 121 160 192 260 216 308
24 45 26 54 13 63 -17 11 -71 7 -115 -9 -16 -7 -79 -25 -140 -42 -60 -17 -126
-38 -145 -45 -19 -8 -59 -19 -89 -25 -30 -6 -59 -15 -65 -20 -6 -4 -38 -15
-71 -24 -102 -26 -199 -54 -225 -64 -14 -5 -65 -22 -115 -37 -49 -14 -110 -32
-135 -40 -25 -7 -64 -13 -87 -13 -31 1 -50 -6 -73 -26 -22 -18 -43 -26 -70
-26 -38 0 -39 1 -75 73 -19 39 -41 79 -47 88 -21 31 -6 44 122 103 33 15 37
51 11 87 -12 15 -21 32 -21 36 0 4 -17 33 -38 63 -21 30 -53 81 -71 113 -18
31 -36 57 -41 57 -5 0 -11 8 -15 19 -3 10 -34 55 -68 100 -34 44 -78 102 -97
128 -33 45 -81 99 -263 297 -45 49 -113 116 -152 149 -38 33 -98 85 -132 115
-34 30 -75 64 -91 76 -16 11 -71 53 -123 91 -86 65 -135 98 -289 197 -240 153
-718 370 -925 419 -22 5 -53 16 -70 23 -16 8 -52 17 -80 21 -27 4 -61 13 -75
20 -14 7 -52 16 -84 20 -33 4 -71 11 -85 17 -14 5 -53 14 -86 18 -33 5 -98 16
-145 24 -47 9 -114 16 -150 16 -36 0 -92 7 -125 15 -63 15 -147 16 -495 4z"/>
<path d="M4261 5546 c-6 -7 -49 -28 -94 -46 -45 -18 -101 -41 -124 -51 -23
-11 -46 -19 -50 -19 -5 0 -24 -8 -43 -19 -19 -10 -46 -22 -60 -26 -14 -4 -38
-13 -55 -20 -38 -17 -137 -58 -217 -90 -35 -14 -76 -32 -91 -40 -16 -8 -34
-15 -40 -15 -7 0 -34 -12 -62 -25 -27 -14 -57 -25 -65 -25 -8 0 -28 -9 -45
-20 -16 -11 -36 -20 -44 -20 -8 0 -32 -8 -55 -19 -23 -10 -63 -28 -91 -39
-193 -81 -275 -116 -311 -133 -23 -10 -46 -19 -51 -19 -10 0 -73 -27 -169 -71
-22 -10 -44 -19 -49 -19 -10 0 -92 -36 -115 -51 -8 -5 -30 -19 -48 -30 -52
-34 -59 -57 -27 -87 15 -13 48 -36 73 -49 26 -13 63 -34 82 -46 40 -26 35 -23
195 -115 146 -85 334 -176 395 -192 25 -7 50 -15 55 -20 6 -4 24 -10 42 -13
28 -6 36 -2 65 32 18 20 83 77 143 126 61 48 119 97 130 107 11 10 61 50 110
90 85 67 112 89 224 183 27 22 57 47 67 55 10 8 57 47 104 85 47 39 113 92
147 119 60 46 62 47 90 32 30 -16 61 -43 188 -165 44 -42 111 -103 150 -136
38 -33 110 -98 160 -145 49 -47 106 -99 125 -114 19 -16 85 -74 145 -131 61
-56 142 -129 180 -162 39 -33 95 -84 125 -114 30 -29 81 -75 113 -102 31 -26
57 -54 57 -61 0 -7 -28 -50 -62 -94 -35 -45 -81 -107 -103 -137 -69 -95 -188
-257 -274 -370 -52 -70 -66 -64 -191 72 -58 63 -114 124 -126 136 -11 12 -44
51 -74 87 -29 36 -56 67 -59 70 -4 3 -39 40 -79 82 -47 51 -72 85 -72 101 0
25 12 38 242 274 154 158 159 169 112 239 -15 21 -66 78 -113 127 -69 69 -93
87 -116 87 -23 0 -54 -27 -179 -154 -83 -84 -187 -191 -230 -237 -44 -46 -126
-132 -183 -190 -95 -98 -103 -109 -103 -145 0 -22 8 -51 17 -64 10 -14 25 -37
33 -52 8 -15 42 -72 75 -128 33 -55 67 -112 75 -128 9 -15 31 -52 51 -82 19
-30 38 -62 42 -70 4 -8 30 -51 57 -95 27 -44 67 -111 90 -150 22 -38 50 -83
60 -100 11 -16 29 -46 40 -65 11 -19 31 -52 43 -72 12 -20 41 -70 65 -110 24
-40 52 -86 62 -103 11 -16 29 -46 40 -65 11 -19 29 -48 39 -65 28 -46 113
-189 176 -295 81 -138 107 -174 138 -185 54 -18 22 -72 415 705 134 267 269
535 299 595 30 61 58 118 63 127 13 23 97 191 152 304 53 108 66 127 94 142
12 6 24 23 26 36 4 21 -11 41 -96 123 -56 54 -128 121 -160 148 -32 28 -86 76
-120 109 -34 32 -104 96 -156 141 -52 46 -118 105 -147 132 -28 28 -80 74
-114 104 -35 30 -101 91 -148 135 -48 45 -102 94 -121 110 -49 39 -122 105
-210 189 -41 39 -91 84 -110 99 -19 16 -70 61 -112 102 -43 40 -97 88 -120
106 -23 18 -60 50 -82 70 -43 40 -84 49 -105 24z m131 -203 c33 -27 86 -71
117 -100 32 -29 84 -74 118 -100 33 -27 84 -72 114 -100 30 -28 72 -66 94 -83
22 -18 65 -55 95 -83 31 -29 85 -75 120 -103 36 -29 74 -62 85 -74 11 -13 43
-41 70 -63 28 -21 75 -62 105 -90 30 -28 93 -84 140 -124 133 -114 210 -181
280 -244 36 -31 93 -81 128 -109 64 -52 81 -91 46 -104 -27 -11 -38 -7 -74 27
-20 17 -48 40 -64 50 -16 11 -63 51 -105 91 -42 40 -89 82 -104 94 -16 11 -63
52 -105 90 -85 77 -175 156 -297 261 -44 37 -100 87 -125 111 -24 23 -67 59
-95 80 -27 21 -61 50 -75 65 -14 15 -59 55 -100 89 -41 33 -90 76 -108 94 -18
18 -63 58 -100 89 -37 30 -94 81 -127 112 -33 31 -71 65 -85 76 -14 11 -33 32
-42 47 -17 26 -17 28 0 37 26 16 30 14 94 -36z m243 -863 c9 -27 -29 -73 -156
-190 -122 -113 -146 -137 -221 -221 -136 -154 -162 -176 -183 -159 -44 36 1
92 323 407 189 184 223 207 237 163z"/>
<path d="M5567 5496 c-19 -13 -44 -32 -54 -43 -11 -10 -42 -38 -69 -63 -27
-25 -71 -72 -97 -103 -27 -31 -91 -100 -143 -153 -52 -53 -94 -102 -94 -110 0
-44 221 -284 262 -284 16 0 64 42 168 150 118 122 151 150 174 150 25 0 94
-43 233 -144 23 -17 58 -42 78 -56 20 -14 67 -48 105 -77 37 -28 78 -57 91
-63 19 -11 144 -100 204 -146 28 -22 141 -100 270 -189 78 -53 120 -75 140
-75 31 1 59 16 236 130 56 36 116 74 135 85 18 11 77 47 129 80 53 33 126 79
163 102 37 23 87 53 112 67 60 33 77 60 55 92 -13 20 -24 24 -68 24 -29 0 -70
9 -93 19 -23 10 -57 22 -75 26 -19 4 -45 13 -59 20 -24 13 -77 31 -170 60 -25
7 -76 25 -115 40 -38 14 -86 31 -105 36 -19 5 -51 16 -70 24 -36 14 -99 35
-180 60 -66 21 -162 54 -185 65 -11 5 -40 14 -65 21 -25 6 -50 15 -55 19 -6 5
-29 13 -50 19 -52 13 -155 49 -177 61 -10 5 -34 14 -55 19 -41 10 -111 34
-183 61 -73 28 -142 51 -184 61 -21 5 -51 16 -67 24 -43 23 -101 19 -142 -9z
m51 -113 c4 -31 -31 -76 -171 -218 -65 -66 -132 -135 -149 -152 -16 -18 -36
-33 -44 -33 -19 0 -37 38 -28 58 4 9 8 20 8 24 1 3 22 26 49 51 26 25 47 48
47 52 0 3 31 36 70 72 38 36 93 90 122 119 57 58 90 67 96 27z"/>
<path d="M864 5336 c-18 -14 -19 -29 -17 -419 1 -287 5 -411 13 -427 6 -12 17
-83 25 -159 7 -76 17 -146 23 -157 6 -10 16 -53 22 -94 6 -41 18 -95 25 -120
13 -43 31 -105 60 -215 8 -27 26 -81 40 -120 15 -38 33 -90 41 -115 18 -55 53
-128 65 -136 5 -3 21 1 36 8 32 16 33 35 3 94 -11 21 -20 45 -20 54 -1 8 -9
33 -20 55 -11 22 -19 47 -20 55 0 8 -8 37 -19 65 -10 27 -28 82 -39 120 -11
39 -28 93 -36 121 -9 28 -22 87 -30 130 -7 43 -18 91 -24 106 -6 14 -14 66
-17 115 -4 48 -13 111 -20 138 -21 77 -30 251 -30 585 0 168 -4 311 -8 318
-11 16 -29 15 -53 -2z"/>
<path d="M8905 5339 c-4 -6 -8 -173 -9 -372 -1 -207 -7 -401 -14 -452 -7 -49
-16 -121 -21 -160 -14 -107 -49 -289 -61 -316 -5 -13 -14 -49 -19 -79 -5 -30
-14 -68 -20 -85 -5 -16 -26 -79 -45 -140 -52 -167 -76 -231 -117 -321 -11 -23
-19 -44 -19 -48 0 -10 -175 -361 -205 -411 -13 -22 -28 -49 -33 -60 -6 -12
-17 -27 -26 -34 -9 -7 -16 -18 -16 -24 0 -6 -39 -68 -87 -138 -122 -178 -130
-190 -166 -228 -18 -19 -36 -43 -42 -52 -5 -10 -50 -61 -100 -115 -49 -53 -93
-102 -97 -109 -18 -29 -377 -356 -417 -379 -9 -5 -36 -26 -61 -46 -64 -53
-281 -202 -355 -244 -16 -10 -48 -28 -70 -42 -22 -13 -53 -30 -70 -38 -16 -8
-57 -29 -90 -48 -70 -40 -356 -168 -373 -168 -7 0 -29 -9 -49 -20 -21 -11 -44
-20 -51 -20 -7 0 -34 -8 -60 -19 -58 -23 -213 -71 -227 -71 -5 0 -39 -9 -75
-19 -96 -29 -324 -76 -445 -91 -106 -14 -407 -33 -520 -34 -138 0 -393 12
-495 23 -105 12 -328 49 -341 56 -5 4 -30 10 -57 15 -92 18 -303 74 -397 106
-133 46 -240 87 -301 115 -23 10 -44 19 -48 19 -12 0 -326 160 -398 203 -20
12 -63 38 -95 56 -32 19 -81 51 -109 70 -27 20 -76 54 -108 76 -244 169 -610
510 -766 715 -19 25 -48 62 -65 82 -54 66 -73 92 -181 253 -37 55 -75 112 -85
127 -11 15 -19 30 -19 33 0 4 -14 26 -31 50 -27 37 -34 42 -57 36 -31 -8 -41
-44 -20 -69 8 -9 20 -28 26 -42 7 -14 26 -45 42 -70 16 -25 33 -52 37 -60 7
-13 66 -101 120 -180 23 -32 128 -167 195 -250 128 -158 528 -536 668 -633 14
-9 50 -35 80 -57 48 -35 108 -76 230 -155 90 -59 347 -194 475 -251 17 -7 56
-24 87 -38 31 -15 64 -26 72 -26 8 0 18 -4 21 -10 3 -5 31 -17 61 -26 30 -9
67 -22 82 -30 15 -8 35 -14 45 -14 11 0 33 -6 50 -14 61 -27 248 -79 362 -101
39 -7 85 -18 104 -24 19 -6 68 -13 110 -17 42 -3 94 -12 116 -20 28 -10 126
-17 325 -23 376 -12 811 7 867 37 12 7 39 12 60 12 21 1 67 7 103 15 142 30
207 45 255 59 28 8 91 27 140 42 50 14 104 32 122 40 17 8 37 14 45 14 8 0 31
9 52 19 21 11 52 23 69 27 18 4 48 15 67 25 19 11 38 19 43 19 9 0 114 46 137
61 8 5 26 14 40 19 14 6 32 14 40 18 8 5 64 35 125 67 112 59 121 64 215 123
139 88 242 159 335 232 38 30 88 69 110 85 81 61 418 389 501 490 23 28 52 61
63 75 38 43 144 185 191 255 25 37 50 72 56 79 6 7 19 25 28 41 9 17 24 42 34
57 29 45 156 271 179 318 86 177 103 214 103 224 0 6 7 24 16 41 25 48 74 175
74 193 0 9 7 25 15 35 7 11 17 38 20 60 4 23 12 47 17 54 9 12 34 101 68 248
11 44 26 109 35 145 21 88 34 161 45 250 6 41 16 120 22 175 17 128 15 763 -2
794 -11 22 -54 29 -65 10z"/>
</g>
</svg>
