<svg id="bilibili_logo" data-name="bilibili logo" xmlns="http://www.w3.org/2000/svg" viewBox="0 0 2080 2080"><path d="M1469,714.24H611a105.22,105.22,0,0,0-105.1,105.1v549.5A105.22,105.22,0,0,0,611,1473.94h858.1a105.22,105.22,0,0,0,105.1-105.1V819.34c0-57.9-47.2-105.1-105.2-105.1ZM613.7,958.54,894.3,909l20.6,116.9-280.6,49.5-20.6-116.9Zm570.3,317.7a103.09,103.09,0,0,1-70.5,30.3c-26.9.7-53.6-10.9-73.5-31.2-19.3,19.7-45,31.2-71.1,31.2h-2.4a103.73,103.73,0,0,1-70.5-30.3l-17.7-17.7,33.6-33.6,17.7,17.7a56,56,0,0,0,38.2,16.4c17.1.7,35.1-9.8,46.3-26.9l25.9-39.7,25.9,39.7c11.2,17.1,29.1,27.8,46.3,26.9a56,56,0,0,0,38.2-16.4l17.7-17.7,33.6,33.6Zm261.7-200.8-280.6-49.5L1185.7,909l280.6,49.5Z"/><path d="M1040,0C465.62,0,0,465.62,0,1040S465.62,2080,1040,2080s1040-465.62,1040-1040S1614.38,0,1040,0Zm429.1,1592.64h-35.6a71,71,0,0,1-70.6,64.6c-37.1,0-67.1-28.4-70.6-64.6H787.6a71,71,0,0,1-70.6,64.6c-37.1,0-67.1-28.4-70.6-64.6H610.9c-123.6,0-223.8-100.2-223.8-223.8V819.34c0-123.6,100.2-223.8,223.8-223.8H822.7l-91.8-91.8a47.45,47.45,0,0,1,67.1-67.1l158.9,158.9h166l158.9-158.9a47.45,47.45,0,0,1,67.1,67.1l-91.8,91.8h211.8c123.6,0,223.8,100.2,223.8,223.8v549.5h.2C1692.9,1492.44,1592.7,1592.64,1469.1,1592.64Z"/></svg>