<svg xmlns="http://www.w3.org/2000/svg" viewBox="0 0 27 27"><g id="图层_2" data-name="图层 2"><g id="图层_1-2" data-name="图层 1"><rect x="14.42" y="15.07" width="5.47" height="4.47"/><path d="M13.5,0A13.5,13.5,0,1,0,27,13.5,13.49,13.49,0,0,0,13.5,0ZM6.21,6.32H12.3V17H11.14V7.52H7.31v9.56H6.21ZM6.14,21.64a4.05,4.05,0,0,0-.8-.87C8.42,19,8.63,15.85,8.63,13.59V8.67H9.79v4.92C9.79,16.21,9.41,19.57,6.14,21.64Zm5.2-.5A22.22,22.22,0,0,0,9.41,18l1-.59a30.48,30.48,0,0,1,2,3.1Zm10.32-11H17.32v3.71h3.79v7.71H19.88v-.78H14.42v.85H13.24V13.84h2.83V5.36h1.25V8.91h4.34Z"/></g></g></svg>